<svg width="48" height="48" viewBox="0 0 48 48" fill="none" xmlns="http://www.w3.org/2000/svg">
<g id="Group 22">
<circle id="Ellipse 12" cx="24" cy="24" r="24" fill="#5637F0" fill-opacity="0.219608"/>
<path id="Vector" fill-rule="evenodd" clip-rule="evenodd" d="M34.3333 22.3333H36V19.2227L34.5 13H13.5L12 19.2227V22.3333H13.6667V34H34.3333V22.3333ZM32.3333 22.3333H15.6667V32H21.3333V25H26.6667V32H32.3333V22.3333ZM25 15H27.756L28.404 19.32L28.4413 20.3333H25V15ZM20.244 15H23V20.3333H19.5587L19.596 19.32L20.244 15ZM30.3973 19.1333L29.7787 15H32.9253L34 19.46V20.3333H30.4427L30.3973 19.1333ZM18.2213 15H15.0747L14 19.46V20.3333H17.5573L17.6027 19.1333L18.2213 15Z" fill="#573EF7"/>
</g>
</svg>
