<svg width="48" height="48" viewBox="0 0 48 48" fill="none" xmlns="http://www.w3.org/2000/svg">
<g id="Group 18">
<circle id="Ellipse 13" cx="24" cy="24" r="24" fill="#7BDCB5" fill-opacity="0.141176"/>
<path id="Vector" d="M29 12H20C18.35 12 17 13.35 17 15V33C17 34.65 18.35 36 20 36H29C30.65 36 32 34.65 32 33V15C32 13.35 30.65 12 29 12ZM29.75 33C29.75 33.45 29.45 33.75 29 33.75H20C19.55 33.75 19.25 33.45 19.25 33V15C19.25 14.55 19.55 14.25 20 14.25H29C29.45 14.25 29.75 14.55 29.75 15V33ZM23 32.25H26V30H23V32.25Z" fill="#00D084"/>
</g>
</svg>
